<svg width="36" height="35" viewBox="0 0 36 35" fill="none" xmlns="http://www.w3.org/2000/svg">
<path d="M0.397217 17.4979C0.397217 7.83407 8.23128 0 17.8951 0C27.5589 0 35.393 7.83407 35.393 17.4979C35.393 27.1617 27.5589 34.9958 17.8951 34.9958C8.23128 34.9958 0.397217 27.1617 0.397217 17.4979Z" fill="#434343"/>
<path d="M18.8104 23.2399C18.8104 23.2399 19.1472 23.2032 19.3198 23.0213C19.4777 22.8546 19.4722 22.5401 19.4722 22.5401C19.4722 22.5401 19.4512 21.0714 20.1459 20.8546C20.8306 20.6413 21.7097 22.2748 22.6427 22.903C23.3474 23.3779 23.8823 23.274 23.8823 23.274L26.3754 23.2399C26.3754 23.2399 27.679 23.1611 27.061 22.1548C27.0099 22.0723 26.7004 21.4101 25.2078 20.0499C23.6441 18.626 23.854 18.8563 25.7364 16.393C26.883 14.893 27.3412 13.9772 27.1979 13.5856C27.0619 13.211 26.2184 13.3105 26.2184 13.3105L23.4122 13.3275C23.4122 13.3275 23.2041 13.2997 23.0498 13.3902C22.8992 13.479 22.8015 13.686 22.8015 13.686C22.8015 13.686 22.3578 14.8464 21.7654 15.8338C20.5156 17.9163 20.0163 18.0265 19.8118 17.8975C19.3362 17.5955 19.4549 16.686 19.4549 16.0399C19.4549 14.0211 19.7671 13.1797 18.8478 12.9619C18.5429 12.8893 18.3184 12.8418 17.5378 12.8338C16.5364 12.8239 15.6893 12.8374 15.2091 13.0677C14.8896 13.2209 14.6431 13.5632 14.7937 13.5829C14.9791 13.6071 15.399 13.694 15.6217 13.9915C15.9093 14.3759 15.8992 15.238 15.8992 15.238C15.8992 15.238 16.0645 17.6144 15.5131 17.9092C15.1352 18.1117 14.6166 17.6986 13.502 15.8088C12.9315 14.841 12.5006 13.7711 12.5006 13.7711C12.5006 13.7711 12.4175 13.5713 12.2687 13.4637C12.0889 13.3338 11.8378 13.2935 11.8378 13.2935L9.17133 13.3105C9.17133 13.3105 8.77058 13.3213 8.62361 13.4924C8.49307 13.6438 8.61357 13.9584 8.61357 13.9584C8.61357 13.9584 10.7013 18.7533 13.0657 21.17C15.2337 23.3851 17.6949 23.2399 17.6949 23.2399H18.8104Z" fill="white"/>
</svg>
